<svg id="_0521_user_interface_1" xmlns="http://www.w3.org/2000/svg" xmlns:xlink="http://www.w3.org/1999/xlink" viewBox="0 0 500 500" data-imageid="user-interface-1-5" imageName="User Interface 1" class="illustrations_image" style="width: 160px;"><defs><style>.cls-1_user-interface-1-5{fill:url(#linear-gradient);}.cls-1_user-interface-1-5,.cls-2_user-interface-1-5,.cls-3_user-interface-1-5,.cls-4_user-interface-1-5,.cls-5_user-interface-1-5,.cls-6_user-interface-1-5,.cls-7_user-interface-1-5,.cls-8_user-interface-1-5,.cls-9_user-interface-1-5,.cls-10_user-interface-1-5{stroke-width:0px;}.cls-2_user-interface-1-5{opacity:.18;}.cls-2_user-interface-1-5,.cls-6_user-interface-1-5{isolation:isolate;}.cls-2_user-interface-1-5,.cls-10_user-interface-1-5{fill:#68e1fd;}.cls-11_user-interface-1-5{fill:none;stroke:#fff;stroke-miterlimit:10;stroke-width:1.41px;}.cls-3_user-interface-1-5{fill:url(#linear-gradient-4-user-interface-1-5);}.cls-4_user-interface-1-5{fill:url(#linear-gradient-2-user-interface-1-5);}.cls-5_user-interface-1-5{fill:url(#linear-gradient-3-user-interface-1-5);}.cls-6_user-interface-1-5{opacity:.38;}.cls-6_user-interface-1-5,.cls-8_user-interface-1-5{fill:#fff;}.cls-7_user-interface-1-5{fill:#231f20;}.cls-9_user-interface-1-5{fill:#ffb4a3;}</style><linearGradient id="linear-gradient-user-interface-1-5" x1="-1304.57" y1="4.26" x2="-1198.08" y2="205.85" gradientTransform="translate(1423.38 143.97) scale(1 .98) skewX(-20.81)" gradientUnits="userSpaceOnUse"><stop offset="0" stop-color="#231f20"/><stop offset=".08" stop-color="#231f20" stop-opacity=".69"/><stop offset=".21" stop-color="#231f20" stop-opacity=".32"/><stop offset="1" stop-color="#231f20" stop-opacity="0"/></linearGradient><linearGradient id="linear-gradient-2-user-interface-1-5" x1="-1283.34" y1="-6.94" x2="-1176.84" y2="194.61" xlink:href="#linear-gradient-user-interface-1-5"/><linearGradient id="linear-gradient-3-user-interface-1-5" x1="-236.91" y1="212.71" x2="-109.36" y2="240.88" gradientTransform="translate(338.11 79.04)" gradientUnits="userSpaceOnUse"><stop offset="0" stop-color="#231f20"/><stop offset=".13" stop-color="#231f20" stop-opacity=".69"/><stop offset=".25" stop-color="#231f20" stop-opacity=".32"/><stop offset="1" stop-color="#231f20" stop-opacity="0"/></linearGradient><linearGradient id="linear-gradient-4-user-interface-1-5" x1="-78.9" y1="-60.24" x2="-66.52" y2="32.35" gradientTransform="translate(404.09 141.17)" xlink:href="#linear-gradient-user-interface-1-5"/></defs><g id="background_user-interface-1-5"><path class="cls-2_user-interface-1-5 targetColor" d="M94.25,422.56c6.51,1.75,13.1,3.14,19.76,4.18,37.28,5.88,75.48,2.47,112.93,7,39.66,4.76,78.18,18.44,118.17,8.59,32.05-7.91,60.54-28.11,81.39-53.36,29.23-35.28,45.19-79.8,57.36-124.02,13.64-49.48,21.02-108.94-14.02-146.42-27.99-29.99-73.51-34.72-114.49-33.14-21.67.85-43.34,2.94-65.01,2.23-21.67-.71-38.43-7.82-58.39-11.76-31.81-6.32-72.45,14.97-94.5,36.11-26.46,25.23-41.16,60.36-65.66,87.41-16.47,18.14-37.46,32.9-48.6,54.72-5.44,11.63-8.97,24.06-10.47,36.81-4,26.67-4.23,55.19,8.17,79.12,14.29,27.58,42.87,44.25,73.36,52.54Z" style="fill: rgb(104, 225, 253);"/></g><g id="screen_user-interface-1-5"><path class="cls-2_user-interface-1-5 targetColor" d="M115.45,309.39l56.31-150.25c1.89-5.01,6.68-8.32,12.03-8.32h237.1c7.08.02,12.82,5.76,12.82,12.85,0,1.31-.2,2.6-.59,3.85l-54.48,170.53c-1.83,5.68-7.34,9.34-13.29,8.82l-238.98-20.29c-7.07-.58-12.34-6.78-11.76-13.85.14-1.15.42-2.28.85-3.35Z" style="fill: rgb(104, 225, 253);"/><path class="cls-8_user-interface-1-5" d="M426.76,152.5l-54.57,170.62c-1.86,5.67-7.37,9.32-13.32,8.82l-71.56-6.06-167.27-14.29c-7.04-.54-12.31-6.69-11.77-13.74,0-.03,0-.06,0-.08.12-1.21.4-2.39.82-3.53l13.38-35.28,24.2-64.68,18.76-49.98c1.89-5.01,6.68-8.32,12.03-8.32h237.1c7.08,0,12.82,5.74,12.82,12.82-.02,1.26-.23,2.51-.62,3.7Z"/><polygon class="cls-2_user-interface-1-5 targetColor" points="191.87 300.95 209.36 252.94 282.16 252.94 263.17 302.28 191.87 300.95" style="fill: rgb(104, 225, 253);"/><path class="cls-10_user-interface-1-5 targetColor" d="M426.76,152.5l-54.57,170.62c-1.86,5.67-7.37,9.32-13.32,8.82l-71.56-6.06,66.01-179.18.5-1.38,73.33.76c-.01.22-.01.43,0,.65.31,1.92.18,3.9-.38,5.76Z" style="fill: rgb(104, 225, 253);"/><polygon class="cls-10_user-interface-1-5 targetColor" points="427.26 146.09 427.26 146.77 427.26 147.5 353.31 146.74 165.43 144.83 165.43 143.42 353.81 145.33 427.14 146.09 427.26 146.09" style="fill: rgb(104, 225, 253);"/><path class="cls-8_user-interface-1-5" d="M392.77,189.34c2.48-9.17-2.95-18.61-12.12-21.09-9.17-2.48-18.61,2.95-21.09,12.12-2.48,9.17,2.95,18.61,12.12,21.09,8.72,2.35,17.78-2.44,20.74-10.98l.18-.56.18-.59Z"/><path class="cls-8_user-interface-1-5" d="M355.17,298.51c1.94-9.35-4.07-18.5-13.42-20.44-8.37-1.73-16.74,2.9-19.72,10.91v.56c0,.18,0,.38-.21.56-2.55,9.18,2.82,18.7,12,21.25,8.19,2.28,16.82-1.75,20.34-9.49.18-.56.32-1.12.5-1.68s.29-1.12.5-1.68Z"/><path class="cls-8_user-interface-1-5" d="M372.75,238.09c0-9.53-7.74-17.25-17.27-17.25-9.52,0-17.24,7.73-17.25,17.25v1.21c0,9.53,7.74,17.25,17.27,17.25,9.52,0,17.24-7.73,17.25-17.25v-1.21Z"/><path class="cls-10_user-interface-1-5 targetColor" d="M375.6,184.61h0l4.06-13.03c-1.15-.35-2.33-.56-3.53-.62-6.15-.23-11.7,3.68-13.55,9.56-.35,1.15-.56,2.33-.62,3.53-.04,1.19.07,2.39.32,3.56.52,2.34,1.66,4.49,3.29,6.23,3.28,3.61,8.27,5.17,13.03,4.06,1.15-.27,2.27-.67,3.32-1.21,1.06-.56,2.05-1.25,2.94-2.06,1.74-1.61,3.03-3.63,3.76-5.88l-13.03-4.15Z" style="fill: rgb(104, 225, 253);"/><path class="cls-10_user-interface-1-5 targetColor" d="M355.73,238.65h0v-13.64c-2.39.02-4.73.66-6.79,1.85-1.08.58-2.07,1.31-2.94,2.18-5.32,5.28-5.36,13.89-.07,19.21,1.71,1.73,3.86,2.96,6.22,3.58,2.31.65,4.75.65,7.06,0,1.15-.3,2.26-.74,3.29-1.32l-6.76-11.85Z" style="fill: rgb(104, 225, 253);"/><path class="cls-10_user-interface-1-5 targetColor" d="M338.29,294.87l4.23-12.97c-2.28-.73-4.71-.86-7.06-.38-6.05,1.28-10.47,6.47-10.79,12.64-.06,1.18.03,2.37.29,3.53.24,1.16.64,2.29,1.18,3.35,1.6,3.21,4.42,5.66,7.82,6.79l4.23-13,.09.03Z" style="fill: rgb(104, 225, 253);"/><polygon class="cls-2_user-interface-1-5 targetColor" points="212.68 238.71 230.18 190.66 303.01 190.66 283.98 240 212.68 238.71" style="fill: rgb(104, 225, 253);"/></g><g id="data_user-interface-1-5"><path class="cls-2_user-interface-1-5 targetColor" d="M195.01,166.03l-18.02,59.77c-.55,1.98-2.36,3.34-4.41,3.32l-47.87-1.38,24.23-64.68,42.05-2.47c2.26-.1,4.16,1.66,4.26,3.91.02.52-.06,1.04-.23,1.53Z" style="fill: rgb(104, 225, 253);"/><path class="cls-8_user-interface-1-5" d="M85.31,211.1l18.64-52.78c.58-1.73,2.15-2.95,3.97-3.09l78.56-4.65c2.29-.07,4.2,1.73,4.27,4.01.02.49-.06.99-.22,1.45l-18.02,59.8c-.55,1.98-2.36,3.35-4.41,3.35l-79.21-2.38c-2.29-.13-4.03-2.09-3.9-4.38.03-.47.13-.92.31-1.35Z"/><polygon class="cls-10_user-interface-1-5 targetColor" points="111.04 205.57 100.98 205.57 106.28 191.9 116.3 191.9 111.04 205.57" style="fill: rgb(104, 225, 253);"/><polygon class="cls-10_user-interface-1-5 targetColor" points="123.42 205.57 113.36 205.57 124.12 177.76 134.18 177.76 123.42 205.57" style="fill: rgb(104, 225, 253);"/><polygon class="cls-10_user-interface-1-5 targetColor" points="135.83 205.57 125.77 205.57 132.33 188.64 142.35 188.64 135.83 205.57" style="fill: rgb(104, 225, 253);"/><polygon class="cls-10_user-interface-1-5 targetColor" points="148.2 205.57 138.15 205.57 152.32 168.94 162.38 168.94 148.2 205.57" style="fill: rgb(104, 225, 253);"/><polygon class="cls-1_user-interface-1-5" points="123.42 205.57 113.36 205.57 124.12 177.76 134.18 177.76 123.42 205.57"/><polygon class="cls-4_user-interface-1-5" points="148.2 205.57 138.15 205.57 152.32 168.94 162.38 168.94 148.2 205.57"/><polygon class="cls-10_user-interface-1-5 targetColor" points="160.61 205.57 150.56 205.57 168.67 158.7 178.72 158.7 160.61 205.57" style="fill: rgb(104, 225, 253);"/></g><g id="character_user-interface-1-5"><path class="cls-9_user-interface-1-5" d="M165.23,242.88c-.15.56-.47,1.05-.91,1.41-.64.36-1.36.55-2.09.56-.78.06-1.53.31-2.18.74-.18.35-.18.77,0,1.12l.85,4.76c.12.37.12.77,0,1.15-.24.4-.63.67-1.09.76-1.71.68-3.82,1.26-5.17,0-.65-.72-1.09-1.61-1.26-2.56-1.77-5.34-2.66-10.93-2.65-16.55-.09-3.44,1.32-6.75,3.88-9.06,2.44-1.71,5.44-2.41,8.38-1.94,1.33.16,2.5.96,3.12,2.15.38.85,0,1.68,0,2.59-.02,1.34.07,2.67.26,4,.13.62.28,1.22.47,1.82.23.51.39,1.04.47,1.59-.05,1.03-.34,2.04-.85,2.94-.47,1.07-.83,2.18-1.09,3.32,0,.41-.06.81-.15,1.21Z"/><path class="cls-9_user-interface-1-5" d="M169.05,278.17s5.88,6.29,10.82,6.29,26.73-20.58,26.73-20.58c2.37-1.12,4.17-3.16,5-5.65.21-.85.15-1.73.29-2.59.38-1.72,1.16-3.33,2.26-4.7.38-.38.56-.91.5-1.44-.18-.65-.94-.85-1.59-.97-2.04-.6-4.23-.42-6.15.5-1.36,1.11-2.3,2.64-2.68,4.35-.58-.84-1.4-1.5-2.35-1.88-.59.34-.85,1.06-.62,1.71.22.62.47,1.23.76,1.82.4,2.28-.56,4.58-2.47,5.88-1.14.88-2.35,1.67-3.62,2.35l-13.35,7.79c-1.35.79-2.94,1.62-4.41.88-.68-.35-1.15-1.03-1.88-1.35-1.16-.25-2.37.13-3.18,1-1.78,1.91-3.17,4.15-4.09,6.59Z"/><path class="cls-9_user-interface-1-5" d="M115.86,365.25c-.43,3.6-2.42,6.82-5.44,8.82-5.47,2.56-12.5,3.2-18.38,4.47-3.56.79-7.12,1.59-10.61,2.53-2.94.79-6.09.71-8.09,3.29-1.21,1.53-2,3.7-3.88,4.15-1.38.22-2.75-.41-3.5-1.59-.71-1.19-1.11-2.53-1.18-3.91-.09-.52-.09-1.04,0-1.56.16-.55.44-1.05.82-1.47,2.02-1.84,4.46-3.14,7.12-3.79,2.28-.8,4.49-1.78,6.62-2.94,1.74-.86,3.55-1.56,5.41-2.12l10.73-3.91c2.53-.91,6.32-1.26,7.29-4.15.36-1.41.55-2.86.56-4.32.21-2.89,1.09-5.69,2.59-8.17.18-.42.48-.77.85-1.03.44-.24.94-.36,1.44-.35,1.37-.16,2.76,0,4.06.47,1.7.82,3,2.3,3.62,4.09.57,1.78.79,3.66.65,5.53-.05,2.01-.28,4-.68,5.97Z"/><path class="cls-10_user-interface-1-5 targetColor" d="M67.55,378.84c-.18.76-.76,1.38-.97,2.15-.12.62-.12,1.26,0,1.88l.56,2.94c.05,1.22,1.08,2.16,2.3,2.11.08,0,.16-.01.23-.02.25.02.48.15.62.35.06.16.06.34,0,.5l-.82,3.73c-.34,1.56-.88,3.08-1.62,4.5-.23.06-.47.06-.71,0-1.88,0-2.62-4.76-3.29-6.56-.56-1.82-.71-3.73-.44-5.62,0-1.03.18-2.03.32-2.94.01-1.01.2-2,.56-2.94.24-.47.74-.76,1.26-.74.59.03,2.21-.21,2,.65Z" style="fill: rgb(104, 225, 253);"/><path class="cls-9_user-interface-1-5" d="M147.26,365.81c2.08,3.03,2.68,6.83,1.65,10.35-2.5,5.47-7.44,10.56-11.06,15.32-2.23,2.94-4.41,5.88-6.5,8.82-1.71,2.5-4.15,4.47-4,7.73,0,1.94.88,4.12-.26,5.67-.92,1.06-2.37,1.47-3.7,1.06-1.3-.44-2.47-1.2-3.41-2.21-.39-.35-.72-.75-.97-1.21-.24-.53-.35-1.1-.32-1.68.33-2.71,1.34-5.29,2.94-7.5,1.16-2.12,2.15-4.33,2.94-6.62.76-1.8,1.69-3.52,2.76-5.15l5.62-9.94c1.35-2.32,4.03-5.06,2.94-7.88-.64-1.31-1.44-2.54-2.38-3.65-1.71-2.33-2.85-5.03-3.35-7.88-.09-.45-.09-.91,0-1.35.18-.47.47-.88.85-1.21.96-1.01,2.13-1.79,3.44-2.26,1.82-.49,3.77-.21,5.38.76,1.6.97,2.98,2.25,4.09,3.76,1.26,1.58,2.38,3.26,3.35,5.03Z"/><path class="cls-10_user-interface-1-5 targetColor" d="M119.33,407.48c.35.71.32,1.56.68,2.26.33.54.77,1,1.29,1.35l2.26,1.85c.26.23.56.42.88.56.85.14,1.72-.07,2.41-.59.2-.24.55-.27.79-.08.09.07.15.17.18.28l1.79,3.41c.77,1.39,1.34,2.89,1.71,4.44-.11.22-.27.42-.47.56-1.47,1.21-5.09-1.94-6.73-2.94-1.62-.96-3.01-2.25-4.09-3.79-.59-.82-1.15-1.68-1.71-2.5-.6-.75-1.08-1.59-1.41-2.5-.12-.54.07-1.1.5-1.44.38-.44,1.47-1.65,1.91-.88Z" style="fill: rgb(104, 225, 253);"/><path class="cls-10_user-interface-1-5 targetColor" d="M176.43,270.73c-.12.39-.35.73-.68.97-2.23,2.15-4.5,4.23-6.7,6.38-.71.68-1.48,1.3-2.29,1.85-.74.44-1.53.74-2.26,1.18-.25.16-.48.33-.71.53-1.56,1.43-2.77,3.2-3.53,5.17-.56,1.21-1.09,2.47-1.53,3.73-1.18,3.28-2.05,6.67-2.62,10.11-3.38,19.64,1.03,39.66,3.32,59.36.29,2.18.5,4.35.68,6.53,0,.91.18,1.85.24,2.79.15.83.02,1.69-.38,2.44-.47.55-1.09.95-1.79,1.15-9.94,4.03-21.14,7.2-31.23,3.62-6.53-2.32-11.76-7.2-17.46-11.14-5.7-3.94-12.82-7-19.49-5.06.08-4.81,1.86-9.44,5.03-13.05,1.08-1.43,2.27-2.78,3.56-4.03l2.65-2.62c8.82-8.61,16.38-16.05,21.11-28.14,1.91-4.91,2.29-10.67,5.53-14.97,2.94-3.68,5.2-4.06,5.88-9,.88-6.17,2.29-12.26,4.2-18.2,1.77-5.38,4.55-10.37,8.2-14.7,1.57-2.01,3.48-3.72,5.65-5.06,2.19-1.35,4.78-1.88,7.32-1.5,2.56.43,4.7,2.19,5.62,4.62,2.26,6.67,8.14,9.59,11.35,15.91.25.32.37.71.35,1.12Z" style="fill: rgb(104, 225, 253);"/><path class="cls-7_user-interface-1-5" d="M167.87,222.98c-.48,2.1-1.98,3.81-4,4.56-4.56,1.79-10.85,1.06-9.59,7.56,1.23,4.76.83,9.8-1.12,14.32-1.27,1.66-2.15,3.58-2.59,5.62.03.9.15,1.8.35,2.68,1.36,7.91-3.88,15.45-11.76,16.94-.56.11-1.13.18-1.71.21-1.72-.13-3.45.17-5.03.85-1.43,1.2-2.46,2.81-2.94,4.62-.61,1.9-1.77,3.57-3.32,4.82-3.15,2.12-7.35.82-10.88-.62-2.67-.95-5.18-2.3-7.44-4-2.28-1.74-3.73-4.35-4-7.2.26-1.84.23-3.7-.09-5.53-.63-1.03-1.32-2.01-2.09-2.94-1.36-3.24-1.02-6.94.91-9.88.32-.51.53-1.08.62-1.68-.05-.58-.19-1.14-.41-1.68-.68-4.03,1.36-8.04,5.03-9.85,3.62-1.66,7.43-2.84,11.35-3.53,5.87-1.49,10.68-5.68,12.97-11.29,2.26-4.82,4.18-10.08,9.35-12.5,8.02-3.08,17.04-2.03,24.14,2.79,1.89,1.24,2.79,3.54,2.23,5.73Z"/><path class="cls-5_user-interface-1-5" d="M166.76,280.02c-.74.44-1.53.74-2.26,1.18-.25.15-.49.33-.71.53-2.56,2.34-4.33,5.43-5.06,8.82-1.18,3.3-2.06,6.69-2.65,10.14-1.33,8.94-1.6,18.01-.79,27.02.42,3.28.32,6.6-.29,9.85-3.9-4.6-6.39-10.24-7.14-16.23-.41-3.26-.29-6.62-.97-9.85-.53-2.32-1.47-4.56-1.85-6.91.01-.12.01-.24,0-.35-.62-4.23,1.03-4.85,3.41-7.29,2.32-2.53,4.05-5.54,5.06-8.82,1.96-5.88,4.01-11.67,6.15-17.38-.44,1.56,5.29,6.38,7.12,9.29Z"/><path class="cls-6_user-interface-1-5" d="M160.14,366.64c-10.17,3.09-21.08,2.82-31.08-.79-3.77-1.27-7.26-3.27-10.26-5.88-1.15-1.06-2.18-2.23-3.35-3.23-1.79-1.47-3.77-2.69-5.88-3.65-4.56-2.18-9.32-3.56-13.94-5.44l-.5-.21c1.09-1.42,2.28-2.77,3.56-4.03l2.68-2.62h.59c2.95.4,5.83,1.2,8.56,2.38,4.36,2.5,8.49,5.39,12.32,8.64,3.86,2.59,7.93,4.84,12.17,6.73,2.67,1.37,5.51,2.41,8.44,3.09,2.92.4,5.88.46,8.82.18,2.51.06,4.99-.54,7.2-1.73.26,2.21.47,4.35.68,6.56Z"/></g><g id="paper_plane_user-interface-1-5"><path class="cls-11_user-interface-1-5" d="M357.05,125.1s92.26,40.99,95.44,98.06c3.18,57.07-169.06,46.78-206.73,71.39-37.66,24.61-200.91,62.01-197.76,19.14,3.15-42.87,41.93-57.66,41.93-57.66"/><polygon class="cls-10_user-interface-1-5 targetColor" points="310.12 99.87 340.26 113.81 335.17 131.57 310.12 99.87" style="fill: rgb(104, 225, 253);"/><polygon class="cls-10_user-interface-1-5 targetColor" points="310.12 99.87 357.08 99.87 342.79 108.6 310.12 99.87" style="fill: rgb(104, 225, 253);"/><polygon class="cls-10_user-interface-1-5 targetColor" points="348.23 121.66 340.26 113.81 310.12 99.87 342.79 108.6 348.23 121.66" style="fill: rgb(104, 225, 253);"/><polygon class="cls-3_user-interface-1-5" points="348.23 121.66 340.26 113.81 310.12 99.87 342.79 108.6 348.23 121.66"/><polygon class="cls-10_user-interface-1-5 targetColor" points="348.23 121.66 340.26 113.81 310.12 99.87 348.23 121.66" style="fill: rgb(104, 225, 253);"/></g></svg>